<?xml version="1.0" standalone="no"?>
<!DOCTYPE svg PUBLIC "-//W3C//DTD SVG 20010904//EN"
 "http://www.w3.org/TR/2001/REC-SVG-20010904/DTD/svg10.dtd">
<svg version="1.0" xmlns="http://www.w3.org/2000/svg"
 width="1000.000000pt" height="1000.000000pt" viewBox="0 0 1000.000000 1000.000000"
 preserveAspectRatio="xMidYMid meet">

<g transform="translate(0.000000,1000.000000) scale(0.100000,-0.100000)"
fill="#000000" stroke="none">
<path d="M2250 8815 c0 -208 1 -225 18 -225 9 0 369 0 799 0 740 0 782 -1 786
-17 4 -16 5 -16 8 2 1 11 5 -11 9 -50 l6 -70 2 69 c2 60 4 67 17 56 13 -11 15
-91 15 -606 l0 -594 70 0 70 0 0 793 c0 518 -4 805 -11 830 l-10 37 -889 0
-890 0 0 -225z"/>
<path d="M7960 8465 c1 -412 -2 -580 -10 -595 -6 -12 -9 -24 -6 -28 3 -3 6 0
6 7 0 7 5 9 10 6 8 -5 7 -11 -1 -21 -8 -10 -8 -14 0 -14 7 0 9 -10 6 -27 -3
-16 4 -3 15 27 12 30 19 65 17 77 -3 16 0 20 12 15 14 -5 14 -4 2 11 -8 10
-11 20 -7 24 3 3 6 1 6 -6 0 -7 5 -9 10 -6 6 4 8 10 5 15 -3 5 -1 11 4 14 5 3
7 16 4 29 -4 18 -3 19 6 7 8 -12 11 -7 11 23 0 23 5 37 13 37 8 0 7 4 -3 10
-13 8 -12 10 3 10 16 0 22 16 18 49 -2 7 2 10 7 7 5 -3 12 3 15 14 3 11 0 20
-6 20 -7 0 -4 5 6 11 9 6 15 14 12 20 -4 5 -1 9 6 9 8 0 8 4 -1 15 -11 13 -11
18 0 28 10 10 12 8 6 -8 -4 -12 -4 -16 2 -10 5 6 31 71 57 145 26 74 51 144
56 155 17 37 179 487 179 496 0 5 -99 9 -230 9 l-231 0 1 -575z m162 -179 c4
3 9 1 12 -4 3 -6 0 -9 -6 -8 -21 3 -38 16 -38 29 0 7 6 4 14 -5 7 -10 15 -15
18 -12z m-109 -301 c-7 -21 -12 -19 -10 4 0 11 5 18 9 15 4 -3 5 -11 1 -19z
m-23 -105 c0 -5 -8 -10 -17 -10 -15 0 -16 2 -3 10 19 12 20 12 20 0z"/>
<path d="M2253 8520 c0 -25 2 -35 4 -22 2 12 2 32 0 45 -2 12 -4 2 -4 -23z"/>
<path d="M2281 8464 c0 -11 3 -14 6 -6 3 7 2 16 -1 19 -3 4 -6 -2 -5 -13z"/>
<path d="M7926 7908 c3 -5 10 -6 15 -3 13 9 11 12 -6 12 -8 0 -12 -4 -9 -9z"/>
<path d="M7920 7880 c0 -5 5 -10 11 -10 5 0 7 5 4 10 -3 6 -8 10 -11 10 -2 0
-4 -4 -4 -10z"/>
<path d="M7920 7835 c0 -8 4 -15 10 -15 5 0 7 7 4 15 -4 8 -8 15 -10 15 -2 0
-4 -7 -4 -15z"/>
<path d="M7926 7793 c5 -5 12 -12 16 -18 4 -6 8 -2 8 8 0 9 -7 17 -17 17 -9 0
-12 -3 -7 -7z"/>
<path d="M7884 7660 c0 -9 6 -22 13 -29 10 -9 12 -7 10 11 -1 16 3 22 13 20 8
-2 12 0 7 4 -14 15 -43 11 -43 -6z"/>
<path d="M7862 7650 c0 -14 2 -19 5 -12 2 6 2 18 0 25 -3 6 -5 1 -5 -13z"/>
<path d="M7877 7573 c-10 -9 -9 -23 1 -23 5 0 9 7 9 15 0 17 -1 18 -10 8z"/>
<path d="M7840 7546 c0 -2 7 -9 15 -16 9 -7 15 -8 15 -2 0 5 -7 12 -15 16 -8
3 -15 4 -15 2z"/>
<path d="M7798 7403 c6 -2 10 -9 7 -14 -4 -5 1 -6 10 -2 13 5 14 7 3 14 -7 5
-17 8 -23 8 -5 0 -4 -3 3 -6z"/>
<path d="M3910 4995 l0 -835 60 0 60 0 0 835 0 835 -60 0 -60 0 0 -835z"/>
<path d="M5982 5823 c20 -3 27 -10 26 -26 0 -12 0 -385 1 -829 l1 -808 105 0
105 0 0 835 0 835 -132 -1 c-73 -1 -121 -4 -106 -6z"/>
<path d="M3910 1790 l0 -830 60 0 59 0 10 38 c7 24 11 311 11 830 l0 792 -70
0 -70 0 0 -830z"/>
<path d="M7853 2472 c-13 -8 -12 -37 2 -49 4 -4 6 2 3 14 -3 12 -1 24 6 26 6
2 9 7 6 10 -3 3 -11 3 -17 -1z"/>
<path d="M7867 2406 c-4 -10 -1 -13 8 -9 8 3 12 9 9 14 -7 12 -11 11 -17 -5z"/>
<path d="M7891 2363 c-11 -12 -15 -13 -22 -1 -6 9 -9 6 -9 -11 0 -20 2 -21 15
-11 8 7 15 9 15 4 0 -5 5 -1 11 9 14 24 8 29 -10 10z"/>
<path d="M7941 2214 c0 -11 3 -14 6 -6 3 7 2 16 -1 19 -3 4 -6 -2 -5 -13z"/>
<path d="M7960 2211 c0 -6 4 -13 10 -16 6 -3 7 1 4 9 -7 18 -14 21 -14 7z"/>
<path d="M7920 2165 c0 -8 2 -15 4 -15 2 0 6 7 10 15 3 8 1 15 -4 15 -6 0 -10
-7 -10 -15z"/>
<path d="M7959 2166 c8 -10 9 -16 1 -21 -5 -3 -10 -1 -10 6 0 7 -3 10 -6 7 -3
-4 0 -16 6 -28 8 -15 11 -183 10 -595 l-1 -575 231 0 c131 0 230 4 230 9 0 10
-165 465 -179 496 -6 11 -15 39 -22 63 -7 23 -16 42 -21 42 -5 0 -7 4 -4 9 8
13 -4 42 -15 35 -5 -3 -6 1 -3 9 3 8 -3 32 -12 53 -20 45 -18 39 -28 82 -4 17
-12 32 -17 32 -6 0 -8 4 -4 9 3 6 -3 14 -12 20 -10 6 -13 11 -6 11 9 0 6 18
-9 59 -12 33 -25 58 -29 55 -4 -2 -5 6 -2 17 5 16 2 20 -8 17 -8 -3 -13 -11
-11 -17 1 -7 -2 -9 -8 -6 -8 5 -6 13 4 24 15 16 15 21 -1 57 -9 21 -16 43 -14
48 1 5 -4 6 -12 3 -10 -4 -13 1 -10 16 6 31 -14 77 -33 77 -13 0 -14 -3 -5
-14z m31 -46 c0 -5 -7 -7 -15 -4 -8 4 -15 8 -15 10 0 2 7 4 15 4 8 0 15 -4 15
-10z m33 -102 c-9 -15 -23 -8 -23 12 0 17 2 19 14 8 8 -7 12 -16 9 -20z m-10
-43 c-3 -9 -8 -14 -10 -11 -3 3 -2 9 2 15 9 16 15 13 8 -4z m27 -45 c0 -13
-11 -13 -30 0 -12 8 -11 10 8 10 12 0 22 -4 22 -10z m94 -212 c-3 -5 -10 -6
-15 -3 -13 9 -11 -9 4 -25 10 -12 9 -12 -4 -2 -9 6 -18 9 -22 6 -3 -3 -3 3 0
14 3 12 13 20 23 19 10 -1 16 -5 14 -9z"/>
<path d="M7920 2119 c0 -5 5 -7 10 -4 6 3 10 8 10 11 0 2 -4 4 -10 4 -5 0 -10
-5 -10 -11z"/>
<path d="M7926 2092 c-3 -5 1 -9 9 -9 8 0 12 4 9 9 -3 4 -7 8 -9 8 -2 0 -6 -4
-9 -8z"/>
</g>
</svg>
