<?xml version="1.0" standalone="no"?>
<!DOCTYPE svg PUBLIC "-//W3C//DTD SVG 20010904//EN"
 "http://www.w3.org/TR/2001/REC-SVG-20010904/DTD/svg10.dtd">
<svg version="1.0" xmlns="http://www.w3.org/2000/svg"
 width="2000.000000pt" height="1000.000000pt" viewBox="0 0 2000.000000 1000.000000"
 preserveAspectRatio="xMidYMid meet">

<g transform="translate(0.000000,1000.000000) scale(0.100000,-0.100000)"
fill="#000000" stroke="none">
<path d="M257 7138 c5 -94 16 -176 20 -151 3 12 10 23 16 25 7 1 144 2 305 0
268 -2 292 -4 292 -20 0 -15 2 -15 10 -2 7 11 10 7 11 -20 l2 -35 6 33 c3 18
11 31 16 30 6 -2 11 37 13 100 l3 102 -349 0 -348 0 3 -62z"/>
<path d="M968 6843 c2 -197 5 -360 7 -361 2 -2 17 -1 34 3 l31 7 0 316 c0 353
-5 392 -48 392 l-27 0 3 -357z"/>
<path d="M2757 6998 c-2 -112 -8 -215 -12 -230 -6 -23 -4 -28 11 -28 14 0 15
3 6 8 -7 5 -10 16 -6 25 3 9 10 15 14 12 5 -3 14 8 21 24 7 16 18 27 24 23 5
-3 4 2 -4 12 -12 14 -12 19 -2 25 6 4 13 18 14 29 1 12 5 22 10 22 4 0 6 4 2
10 -3 5 3 18 14 29 11 11 18 28 17 37 -2 10 5 27 15 38 10 10 16 23 13 27 -2
4 0 10 5 14 6 3 8 19 6 35 -2 19 1 29 8 27 7 -1 11 6 11 15 -1 10 7 20 17 23
45 15 12 25 -80 25 l-100 0 -4 -202z m58 32 c3 -5 1 -10 -4 -10 -6 0 -11 5
-11 10 0 6 2 10 4 10 3 0 8 -4 11 -10z"/>
<path d="M2721 6774 c0 -11 3 -14 6 -6 3 7 2 16 -1 19 -3 4 -6 -2 -5 -13z"/>
<path d="M2725 6670 c-3 -5 -1 -10 4 -10 6 0 11 5 11 10 0 6 -2 10 -4 10 -3 0
-8 -4 -11 -10z"/>
<path d="M3191 5728 c71 -114 75 -119 83 -110 4 4 7 3 6 -3 -5 -23 1 -35 18
-35 12 0 13 -3 4 -8 -9 -6 -7 -13 8 -30 11 -11 20 -25 20 -29 0 -13 56 -93 62
-88 2 3 5 -1 5 -9 0 -21 176 -295 186 -289 4 3 7 -3 5 -13 -2 -11 2 -18 10
-16 6 1 12 -2 12 -8 0 -5 6 -10 14 -10 7 0 19 -6 25 -13 8 -10 7 -14 -4 -14
-8 0 -12 4 -9 9 3 4 0 8 -5 8 -18 0 -12 -21 20 -72 17 -26 36 -45 42 -41 6 3
7 1 3 -5 -4 -7 -3 -12 3 -12 6 0 8 -6 5 -13 -2 -7 5 -22 16 -34 11 -12 20 -27
20 -33 0 -6 5 -8 11 -5 6 4 8 14 4 24 -5 12 -3 13 6 4 6 -6 19 -9 28 -6 13 4
13 3 2 -5 -11 -8 -9 -11 8 -17 11 -3 26 -16 32 -28 11 -22 11 -22 -10 1 -21
21 -48 31 -37 14 3 -5 -1 -9 -9 -9 -11 0 -12 4 -4 14 7 8 8 13 1 13 -17 0 -21
-25 -6 -44 8 -12 19 -16 31 -12 9 4 14 4 10 0 -4 -4 -1 -14 6 -23 11 -14 10
-15 -8 -1 -18 13 -19 13 -8 0 9 -13 6 -25 -18 -64 -17 -26 -28 -54 -25 -62 3
-7 0 -11 -7 -8 -19 7 -41 -35 -26 -52 6 -7 15 -12 18 -9 4 2 8 -2 8 -10 0 -12
-4 -12 -20 2 -18 17 -20 17 -43 -12 -13 -17 -22 -36 -19 -43 3 -7 1 -10 -4 -7
-5 3 -12 1 -16 -5 -3 -6 4 -15 17 -20 23 -10 23 -10 -2 -6 -22 5 -30 -2 -53
-42 -26 -45 -26 -46 -3 -17 23 26 25 27 23 8 0 -12 -3 -20 -5 -18 -10 9 -73
-49 -68 -62 3 -8 2 -12 -2 -9 -9 5 -98 -133 -95 -146 2 -4 -1 -8 -6 -8 -15 0
-123 -179 -115 -191 4 -7 3 -9 -3 -6 -10 7 -63 -66 -98 -133 -10 -19 -21 -37
-25 -40 -5 -4 -72 -105 -104 -157 -6 -10 61 -13 321 -13 l328 0 18 31 c12 22
13 30 4 26 -8 -3 -14 3 -15 16 -1 15 1 18 7 9 11 -18 18 2 16 45 -1 19 2 31 9
30 6 -1 10 4 8 11 -1 8 2 11 7 8 5 -4 12 0 14 6 3 8 6 6 6 -4 1 -10 -4 -18
-10 -18 -5 0 -7 -5 -4 -10 4 -6 1 -9 -6 -8 -13 3 -20 -40 -7 -48 4 -3 8 2 8
11 0 9 9 25 20 37 11 12 20 29 20 39 0 9 7 19 15 23 9 3 12 12 8 23 -3 10 -2
15 2 11 11 -10 45 46 45 73 0 13 5 18 13 14 6 -4 3 1 -8 9 -19 16 -18 17 13
28 38 15 50 36 19 34 -12 -1 -21 -7 -19 -14 1 -7 -2 -12 -7 -12 -5 0 -8 11 -8
25 0 15 4 22 11 18 6 -3 6 0 -1 8 -18 18 -19 1304 -1 1293 7 -5 8 -3 4 5 -12
18 -18 71 -12 88 5 13 9 13 24 2 9 -8 7 -3 -5 11 -12 14 -21 27 -21 30 3 16
-16 50 -27 50 -8 0 -12 6 -9 14 6 16 -39 51 -53 43 -5 -3 -9 3 -9 13 0 17 2
18 16 5 23 -21 32 -19 18 4 -7 11 -20 22 -30 24 -10 3 -18 11 -17 19 0 10 2
10 6 1 2 -7 9 -13 15 -13 6 0 6 6 -2 15 -7 8 -17 12 -22 9 -5 -3 -9 2 -8 12 4
39 1 47 -14 35 -18 -15 -34 5 -17 22 9 9 11 7 6 -8 -6 -16 -5 -17 4 -5 7 10 6
19 -5 31 -7 8 -14 21 -14 27 0 9 -80 12 -310 12 l-310 0 51 -82z m602 -52 c4
-10 1 -13 -8 -9 -8 3 -12 9 -9 14 7 12 11 11 17 -5z m74 -103 c0 -9 -4 -10
-14 -2 -7 6 -13 12 -13 14 0 1 6 2 13 2 8 0 14 -6 14 -14z m8 -33 c3 -5 1 -10
-4 -10 -6 0 -11 5 -11 10 0 6 2 10 4 10 3 0 8 -4 11 -10z m-278 -392 c-3 -8
-6 -5 -6 6 -1 11 2 17 5 13 3 -3 4 -12 1 -19z m76 -135 c-4 -10 -9 -11 -19 -2
-18 15 -18 15 5 15 11 0 17 -5 14 -13z m65 -118 c-3 -3 -9 2 -12 12 -6 14 -5
15 5 6 7 -7 10 -15 7 -18z m102 -21 c0 -8 -19 -13 -24 -6 -3 5 1 9 9 9 8 0 15
-2 15 -3z m-3 -117 c0 -8 -6 -14 -14 -14 -17 0 -17 14 0 20 6 3 12 6 13 6 0 1
1 -5 1 -12z m-2 -65 c2 -12 -4 -26 -13 -34 -15 -12 -16 -11 -3 5 12 15 11 17
-7 17 -15 0 -20 -5 -17 -19 3 -14 -1 -18 -12 -14 -12 5 -12 7 -1 14 13 8 3 13
-17 9 -5 -1 -6 2 -2 7 9 8 13 9 41 12 10 1 13 9 11 23 -3 14 -1 18 5 12 6 -6
12 -20 15 -32z m-162 -229 c-7 -2 -9 -11 -6 -20 5 -12 2 -12 -15 3 -12 10 -22
19 -22 20 0 1 12 1 28 1 15 0 22 -2 15 -4z m-77 -110 c-2 -9 -9 -19 -17 -21
-11 -3 -11 -1 1 7 13 10 13 11 0 11 -13 0 -13 1 0 10 19 12 19 13 16 -7z m292
-367 c-10 -7 -14 -17 -10 -22 4 -5 3 -6 -2 -2 -5 4 -15 0 -23 -10 -13 -15 -13
-15 -3 5 5 12 18 27 28 32 24 15 30 13 10 -3z m16 -21 c-4 -9 -16 -21 -28 -27
-19 -10 -18 -8 4 15 29 31 31 32 24 12z m-57 -57 c-3 -8 -6 -5 -6 6 -1 11 2
17 5 13 3 -3 4 -12 1 -19z"/>
<path d="M973 5543 c4 -137 7 -299 7 -360 0 -106 1 -113 20 -113 20 0 20 7 20
360 l0 360 -27 0 -26 0 6 -247z"/>
<path d="M1933 5772 l-32 -3 -3 -330 c-2 -212 1 -334 7 -339 6 -4 22 -10 37
-12 l27 -5 3 339 c2 187 1 343 -2 346 -3 4 -20 6 -37 4z m-11 -289 c-1 -153
-4 -298 -5 -323 -2 -25 -4 100 -5 278 -1 177 1 322 6 322 4 0 6 -125 4 -277z"/>
<path d="M3945 5429 c-11 -17 1 -21 15 -4 8 9 8 15 2 15 -6 0 -14 -5 -17 -11z"/>
<path d="M4010 5311 c0 -6 4 -13 10 -16 6 -3 7 1 4 9 -7 18 -14 21 -14 7z"/>
<path d="M4010 5264 c0 -8 4 -13 9 -10 5 3 14 -1 21 -9 11 -13 7 -19 -11 -17
-3 1 -6 -6 -6 -14 0 -12 2 -12 16 0 9 8 20 15 24 14 5 0 12 3 15 7 4 4 2 6 -3
5 -22 -5 -29 1 -15 11 13 9 12 10 -2 5 -10 -3 -18 -1 -18 3 0 5 -7 11 -15 15
-9 3 -15 0 -15 -10z"/>
<path d="M4201 5248 c-13 -21 -13 -22 2 -9 14 11 17 11 17 0 0 -11 2 -11 9 1
10 14 6 30 -7 30 -4 0 -13 -10 -21 -22z"/>
<path d="M4080 5200 c8 -5 20 -10 25 -10 6 0 3 5 -5 10 -8 5 -19 10 -25 10 -5
0 -3 -5 5 -10z"/>
<path d="M4110 5162 c0 -18 29 -27 43 -13 9 9 8 11 -7 5 -11 -4 -21 -2 -27 7
-6 10 -9 11 -9 1z"/>
<path d="M4086 4391 c-5 -7 -5 -15 -2 -18 3 -4 6 0 6 8 0 8 6 5 15 -8 17 -25
54 -27 50 -3 -2 8 -4 20 -4 25 -1 6 -5 3 -10 -5 -6 -8 -7 -18 -5 -22 11 -17
-9 -7 -25 14 -13 15 -20 18 -25 9z"/>
<path d="M980 4028 c0 -203 4 -359 10 -368 8 -13 12 -11 29 7 20 21 21 33 20
362 0 294 -2 340 -15 345 -45 17 -44 26 -44 -346z"/>
<path d="M4103 4319 c15 -9 16 -13 5 -27 -12 -15 -11 -16 5 -3 13 10 15 17 6
27 -6 8 -17 14 -23 14 -6 0 -3 -5 7 -11z"/>
<path d="M4189 4303 c-8 -9 -9 -14 -2 -10 6 4 13 4 16 0 2 -5 2 -3 1 4 -2 6 2
14 9 17 8 3 8 5 1 5 -6 1 -18 -7 -25 -16z"/>
<path d="M4206 4262 c-2 -4 -1 -14 3 -20 6 -10 11 -9 21 3 11 13 10 14 -5 9
-13 -5 -16 -4 -11 4 4 7 5 12 2 12 -3 0 -7 -4 -10 -8z"/>
<path d="M4033 4233 c9 -2 23 -2 30 0 6 3 -1 5 -18 5 -16 0 -22 -2 -12 -5z"/>
<path d="M4000 4210 c0 -5 7 -7 15 -4 8 4 15 8 15 10 0 2 -7 4 -15 4 -8 0 -15
-4 -15 -10z"/>
<path d="M4011 4191 c-11 -7 -9 -10 8 -16 18 -5 20 -10 10 -21 -6 -7 -15 -12
-18 -9 -4 2 -8 -3 -8 -11 0 -10 7 -8 24 8 21 20 22 24 9 34 -9 6 -13 14 -9 17
9 10 1 8 -16 -2z"/>
<path d="M2736 4147 c3 -10 9 -15 12 -12 3 3 0 11 -7 18 -10 9 -11 8 -5 -6z"/>
<path d="M2760 3891 l0 -211 79 0 c71 0 79 2 84 20 3 12 0 26 -7 33 -7 6 -11
19 -8 29 2 10 0 18 -6 18 -6 0 -8 10 -4 22 3 14 2 19 -6 14 -8 -5 -12 0 -12
13 0 12 -5 21 -11 21 -6 0 -9 9 -6 19 2 10 1 25 -4 32 -7 11 -9 10 -9 -3 0 -9
-4 -19 -9 -22 -4 -3 -6 6 -3 19 2 14 9 25 16 25 6 0 3 5 -8 11 -14 9 -21 8
-27 -2 -6 -9 -7 -2 -3 17 4 19 1 34 -5 38 -6 4 -11 12 -11 17 0 6 4 7 10 4 14
-9 0 23 -27 64 l-23 34 0 -212z"/>
</g>
</svg>
